<svg xmlns="http://www.w3.org/2000/svg" width="38" height="39" viewBox="0 0 38 39"><g><g><path fill="#bababa" d="M15.918 19.48l7.187 7.266c.26.209.391.482.391.82 0 .34-.13.639-.39.899-.574.574-1.147.574-1.72 0l-8.124-8.125c-.262-.208-.39-.495-.39-.86 0-.363.128-.65.39-.859l8.125-8.125c.572-.572 1.158-.572 1.758 0 .598.574.585 1.146-.04 1.719zm21.953 0c0 5.157-1.836 9.57-5.508 13.243-3.672 3.671-8.086 5.508-13.242 5.508-5.156 0-9.57-1.837-13.242-5.508C2.207 29.05.37 24.637.37 19.48c0-5.157 1.836-9.57 5.508-13.243C9.55 2.566 13.965.731 19.12.731c5.156 0 9.57 1.835 13.242 5.507 3.672 3.672 5.508 8.086 5.508 13.243zm-2.5 0c0-4.478-1.59-8.306-4.766-11.484C27.428 4.82 23.6 3.23 19.121 3.23c-4.48 0-8.308 1.59-11.484 4.766-3.178 3.177-4.766 7.006-4.766 11.485 0 4.48 1.588 8.307 4.766 11.484 3.176 3.177 7.004 4.765 11.484 4.765 4.479 0 8.307-1.588 11.485-4.765 3.176-3.177 4.765-7.004 4.765-11.484z"/></g></g></svg>