<svg xmlns="http://www.w3.org/2000/svg" width="13" height="16" viewBox="0 0 13 16"><g><g><path fill="#feb960" d="M.235 15.456a.9.9 0 0 1-.278-.66V1.673a.9.9 0 0 1 .278-.66.902.902 0 0 1 .66-.278h11.279a.89.89 0 0 1 .674.279.927.927 0 0 1 .263.659v13.125a.927.927 0 0 1-.263.659.888.888 0 0 1-.674.279H.894a.9.9 0 0 1-.659-.28zM5.714 3.679a.457.457 0 0 0-.132.337c0 .136.044.249.132.337.088.087.2.131.337.131h3.78a.458.458 0 0 0 .336-.131.457.457 0 0 0 .132-.337.457.457 0 0 0-.132-.337.456.456 0 0 0-.337-.132H6.05a.456.456 0 0 0-.336.132zM2.9 6.49a.457.457 0 0 0-.131.337c0 .137.044.25.131.337.088.088.2.132.337.132H9.83a.456.456 0 0 0 .337-.132.456.456 0 0 0 .132-.337.457.457 0 0 0-.132-.337.456.456 0 0 0-.337-.132H3.238a.456.456 0 0 0-.337.132zm0 2.813a.456.456 0 0 0-.131.337c0 .137.044.249.131.336.088.088.2.132.337.132H9.83a.457.457 0 0 0 .337-.132.455.455 0 0 0 .132-.336.456.456 0 0 0-.132-.337.457.457 0 0 0-.337-.132H3.238a.456.456 0 0 0-.337.132zm0 2.812a.457.457 0 0 0-.131.337c0 .137.044.25.131.337.088.088.2.132.337.132H9.83a.456.456 0 0 0 .337-.132.457.457 0 0 0 .132-.337.457.457 0 0 0-.132-.337.456.456 0 0 0-.337-.132H3.238a.456.456 0 0 0-.337.132z"/></g></g></svg>