<svg xmlns="http://www.w3.org/2000/svg" width="21" height="20" viewBox="0 0 21 20"><g><g><path fill="#feb960" d="M6.84 8.79l2.265-2.267 6.407 6.446 1.133 3.36-3.36-1.134zM3.87 5.82a1.543 1.543 0 0 1-.469-1.133c0-.442.157-.82.47-1.132.312-.313.689-.469 1.132-.469.442 0 .82.156 1.133.469l1.64 1.68L5.551 7.46zM20.023.45c.248.247.371.54.371.878v17.5c0 .338-.123.631-.37.879-.248.247-.541.371-.88.371h-17.5c-.338 0-.631-.124-.878-.371a1.2 1.2 0 0 1-.371-.879v-17.5A1.2 1.2 0 0 1 .765.45a1.2 1.2 0 0 1 .88-.37h17.5c.338 0 .63.123.878.37zm-.878.878h-17.5v17.5h17.5z"/></g></g></svg>