<svg xmlns="http://www.w3.org/2000/svg" width="15" height="16" viewBox="0 0 15 16"><g><g><path fill="#feb960" d="M14.331 6.374c.459.635.689 1.567.689 2.798 0 .488-.005.893-.015 1.216-.01.322-.044.737-.103 1.245-.058.508-.146.928-.263 1.26a7.364 7.364 0 0 1-.498 1.084c-.215.39-.48.703-.791.937-.313.235-.714.43-1.202.586a5.376 5.376 0 0 1-1.64.235c-1.075 0-1.948-.064-2.622-.191-.674-.127-1.153-.278-1.436-.454a7.031 7.031 0 0 1-.747-.527c-.215-.176-.513-.327-.893-.455-.381-.126-.894-.19-1.538-.19l-.44-.059v-7.5c.02 0 .132-.043.337-.131.205-.088.478-.25.82-.484.342-.234.674-.517.996-.85.323-.331.61-.776.865-1.333a5.56 5.56 0 0 0 .468-1.83v-.235c.02-.176.132-.346.337-.512.205-.166.484-.25.835-.25.352 0 .61.205.777.616.165.41.239.918.22 1.523v2.549h4.247c.606 0 1.138.318 1.597.952zM.02 6.39a.9.9 0 0 1 .278-.66.9.9 0 0 1 .66-.278c.253 0 .472.093.658.279a.903.903 0 0 1 .279.659v7.47a.901.901 0 0 1-.279.66.9.9 0 0 1-.659.278.9.9 0 0 1-.66-.279.9.9 0 0 1-.277-.659z"/></g></g></svg>